<svg width="38" height="31" viewBox="0 0 38 31" fill="none" xmlns="http://www.w3.org/2000/svg">
<g clip-path="url(#clip0)">
<path d="M4.30469 7.75H35.1797C35.8358 7.75 36.3672 7.31648 36.3672 6.78125V2.90625C36.3672 2.37102 35.8358 1.9375 35.1797 1.9375H4.30469C3.64859 1.9375 3.11719 2.37102 3.11719 2.90625V6.78125C3.11719 7.31648 3.64859 7.75 4.30469 7.75ZM39.9297 12.5938H9.05469C8.39859 12.5938 7.86719 13.0273 7.86719 13.5625V17.4375C7.86719 17.9727 8.39859 18.4062 9.05469 18.4062H39.9297C40.5858 18.4062 41.1172 17.9727 41.1172 17.4375V13.5625C41.1172 13.0273 40.5858 12.5938 39.9297 12.5938ZM35.1797 23.25H4.30469C3.64859 23.25 3.11719 23.6835 3.11719 24.2188V28.0938C3.11719 28.629 3.64859 29.0625 4.30469 29.0625H35.1797C35.8358 29.0625 36.3672 28.629 36.3672 28.0938V24.2188C36.3672 23.6835 35.8358 23.25 35.1797 23.25Z" fill="white"/>
</g>
<defs>
<clipPath id="clip0">
<rect width="38" height="31" fill="white"/>
</clipPath>
</defs>
</svg>
