<svg width="158" height="27" viewBox="0 0 158 27" fill="none" xmlns="http://www.w3.org/2000/svg">
<path d="M40.3562 21.9455C37.2353 21.9455 35.1922 21.1565 34.2265 19.5786C33.6625 18.6555 33.3807 17.4406 33.3807 15.9337V10.561C33.3807 8.12319 34.0758 6.42302 35.4663 5.46053C36.5711 4.69526 38.1238 4.31262 40.1245 4.31262C42.1252 4.31262 43.5893 4.54535 44.5162 5.01082C45.4509 5.46841 46.065 6.08378 46.3585 6.85694C46.6521 7.62221 46.7988 8.55711 46.7988 9.66162L44.6667 9.83914C44.6667 8.72674 44.5587 7.98513 44.3424 7.61432C44.1338 7.23564 43.929 6.9674 43.7283 6.80961C43.5351 6.65182 43.2029 6.51769 42.7316 6.40725C42.2682 6.28892 41.5613 6.22973 40.6112 6.22973C39.6688 6.22973 38.9271 6.29285 38.3863 6.41909C37.8457 6.53742 37.3667 6.74254 36.9495 7.03446C36.1306 7.61038 35.7213 8.63994 35.7213 10.1231V16.3006C35.7213 17.7838 36.1114 18.7778 36.8916 19.2827C37.6719 19.7798 38.8191 20.0283 40.3331 20.0283C41.8548 20.0283 42.9519 19.7837 43.624 19.2946C44.3037 18.7975 44.6436 17.7995 44.6436 16.3006V14.7266H40.6691V12.987H46.9843V21.6851H45.7097L45.4199 18.7739C45.2731 19.76 44.7867 20.5372 43.96 21.1052C43.1411 21.6653 41.9399 21.9455 40.3562 21.9455ZM53.1488 18.1467C53.1488 19.5431 54.1184 20.2413 56.0573 20.2413C57.9964 20.2413 58.9659 19.5431 58.9659 18.1467V12.7148C58.9659 11.3105 57.9964 10.6083 56.0573 10.6083C54.1184 10.6083 53.1488 11.3105 53.1488 12.7148V18.1467ZM61.1443 17.9573C61.1443 19.1881 60.7309 20.1624 59.9045 20.8803C59.0856 21.5905 57.7993 21.9455 56.0457 21.9455C54.2923 21.9455 53.006 21.5905 52.187 20.8803C51.376 20.1703 50.9705 19.196 50.9705 17.9573V12.9042C50.9705 11.6655 51.376 10.6912 52.187 9.98113C53.006 9.26321 54.2923 8.90424 56.0457 8.90424C57.7993 8.90424 59.0856 9.26321 59.9045 9.98113C60.7309 10.6991 61.1443 11.6734 61.1443 12.9042V17.9573ZM65.3854 21.6851V4.57297H67.7144V19.8508H75.2346V21.6851H65.3854ZM80.0319 18.1467C80.0319 19.5431 81.0013 20.2413 82.9404 20.2413C84.8793 20.2413 85.8488 19.5431 85.8488 18.1467V12.7148C85.8488 11.3105 84.8793 10.6083 82.9404 10.6083C81.0013 10.6083 80.0319 11.3105 80.0319 12.7148V18.1467ZM88.0272 17.9573C88.0272 19.1881 87.614 20.1624 86.7874 20.8803C85.9687 21.5905 84.6824 21.9455 82.9288 21.9455C81.1752 21.9455 79.8891 21.5905 79.0702 20.8803C78.2589 20.1703 77.8534 19.196 77.8534 17.9573V12.9042C77.8534 11.6655 78.2589 10.6912 79.0702 9.98113C79.8891 9.26321 81.1752 8.90424 82.9288 8.90424C84.6824 8.90424 85.9687 9.26321 86.7874 9.98113C87.614 10.6991 88.0272 11.6734 88.0272 12.9042V17.9573ZM93.1605 24.3715C93.964 24.6712 94.9488 24.8211 96.1154 24.8211C97.2818 24.8211 98.0968 24.5962 98.5604 24.1465C99.0317 23.6969 99.2671 22.9987 99.2671 22.052V20.3123C98.9505 20.6121 98.4754 20.8369 97.842 20.9868C97.2162 21.1367 96.6406 21.2117 96.1154 21.2117C93.01 21.2117 91.4572 19.8744 91.4572 17.1999V13.0698C91.4572 11.7681 91.8434 10.7504 92.6159 10.0166C93.3961 9.27505 94.5627 8.90424 96.1154 8.90424C96.7335 8.90424 97.3667 9.03837 98.0158 9.3066C98.6724 9.56695 99.0895 9.84703 99.2671 10.1468V9.14092H101.446V21.3891C101.446 22.896 101.055 24.1268 100.275 25.0815C99.5027 26.0361 98.2512 26.5134 96.5209 26.5134C94.7904 26.5134 93.5081 26.3556 92.674 26.0399L93.1605 24.3715ZM99.2671 12.3361C99.2671 11.1843 98.3287 10.6083 96.4514 10.6083C94.5741 10.6083 93.6357 11.3499 93.6357 12.8332V17.5431C93.6357 18.8528 94.5741 19.5076 96.4514 19.5076C97.5562 19.5076 98.4946 19.192 99.2671 18.5609V12.3361ZM107.378 18.1467C107.378 19.5431 108.348 20.2413 110.287 20.2413C112.226 20.2413 113.195 19.5431 113.195 18.1467V12.7148C113.195 11.3105 112.226 10.6083 110.287 10.6083C108.348 10.6083 107.378 11.3105 107.378 12.7148V18.1467ZM115.374 17.9573C115.374 19.1881 114.961 20.1624 114.134 20.8803C113.315 21.5905 112.029 21.9455 110.275 21.9455C108.522 21.9455 107.236 21.5905 106.417 20.8803C105.606 20.1703 105.2 19.196 105.2 17.9573V12.9042C105.2 11.6655 105.606 10.6912 106.417 9.98113C107.236 9.26321 108.522 8.90424 110.275 8.90424C112.029 8.90424 113.315 9.26321 114.134 9.98113C114.961 10.6991 115.374 11.6734 115.374 12.9042V17.9573ZM119.615 21.6851V4.57297H121.944V19.8508H129.464V21.6851H119.615ZM134.262 18.1467C134.262 19.5431 135.231 20.2413 137.17 20.2413C139.109 20.2413 140.078 19.5431 140.078 18.1467V12.7148C140.078 11.3105 139.109 10.6083 137.17 10.6083C135.231 10.6083 134.262 11.3105 134.262 12.7148V18.1467ZM142.257 17.9573C142.257 19.1881 141.844 20.1624 141.017 20.8803C140.198 21.5905 138.912 21.9455 137.158 21.9455C135.405 21.9455 134.118 21.5905 133.3 20.8803C132.489 20.1703 132.083 19.196 132.083 17.9573V12.9042C132.083 11.6655 132.489 10.6912 133.3 9.98113C134.118 9.26321 135.405 8.90424 137.158 8.90424C138.912 8.90424 140.198 9.26321 141.017 9.98113C141.844 10.6991 142.257 11.6734 142.257 12.9042V17.9573Z" fill="#A5FFD6"/>
<path fill-rule="evenodd" clip-rule="evenodd" d="M2.25453 0.850403C1.00939 0.850403 0 1.91878 0 3.23667V24.6138C0 25.9317 1.00939 27 2.25453 27H23.7666C25.0117 27 26.0211 25.9317 26.0211 24.6138V3.23667C26.0211 1.91878 25.0117 0.850403 23.7666 0.850403H2.25453ZM10.4872 4.97726C10.7467 4.97726 10.9569 5.19983 10.9569 5.4744V14.6232C10.9569 14.6347 10.9481 14.6441 10.9372 14.6441C10.9262 14.6441 10.9174 14.6535 10.9174 14.665V22.9387C10.9174 23.2132 10.7071 23.4358 10.4477 23.4358H9.58627C9.32691 23.4358 9.11662 23.2132 9.11662 22.9387V15.1412C9.11662 14.8667 8.90635 14.6441 8.64693 14.6441H5.35451C5.09512 14.6441 4.88482 14.4216 4.88482 14.1469V5.4744C4.88482 5.19983 5.09512 4.97726 5.35451 4.97726H10.4872ZM4.75014 21.0885C4.49203 20.89 4.49203 20.4827 4.75014 20.2841L7.56778 18.117C7.87827 17.8783 8.31359 18.113 8.31359 18.5192V22.8535C8.31359 23.2596 7.87827 23.4945 7.56778 23.2557L4.75014 21.0885ZM18.2711 14.4721C20.6317 14.4721 22.5453 12.3798 22.5453 9.79895C22.5453 7.21804 20.6317 5.12582 18.2711 5.12582C15.9105 5.12582 13.9969 7.21804 13.9969 9.79895C13.9969 12.3798 15.9105 14.4721 18.2711 14.4721Z" fill="#A5FFD6"/>
</svg>
